HIERARCHY
ROOT Hips
{
	OFFSET 0.000000 0.000000 0.000000
	CHANNELS 6 Xposition Yposition Zposition Xrotation Yrotation Zrotation
	JOINT LeftUpLeg_virtual
	{
		OFFSET 0.000000 0.000000 0.000000
		CHANNELS 3 Xrotation Yrotation Zrotation
		JOINT LeftUpLeg
		{
			OFFSET 11.394100 -6.187798 -0.413800
			CHANNELS 3 Xrotation Yrotation Zrotation
			JOINT LeftLeg
			{
				OFFSET 0.430247 -32.302673 3.732800
				CHANNELS 3 Xrotation Yrotation Zrotation
				JOINT LeftFoot
				{
					OFFSET -0.430247 -48.264931 -6.423300
					CHANNELS 3 Xrotation Yrotation Zrotation
					JOINT LeftToeBase
					{
						OFFSET 4.230900 -16.068199 23.438400
						CHANNELS 3 Xrotation Yrotation Zrotation
						JOINT LeftToe_End
						{
							OFFSET 4.510700 0.695400 19.974600
							CHANNELS 3 Xrotation Yrotation Zrotation
							End Site
							{
								OFFSET 0 0 0
							}
						}
					}
				}
			}
		}
	}
	JOINT RightUpLeg_virtual
	{
		OFFSET 0.000000 0.000000 0.000000
		CHANNELS 3 Xrotation Yrotation Zrotation
		JOINT RightUpLeg
		{
			OFFSET -11.333700 -6.187798 -0.413800
			CHANNELS 3 Xrotation Yrotation Zrotation
			JOINT RightLeg
			{
				OFFSET -0.430392 -32.302628 3.733000
				CHANNELS 3 Xrotation Yrotation Zrotation
				JOINT RightFoot
				{
					OFFSET 0.430392 -48.264973 -6.423500
					CHANNELS 3 Xrotation Yrotation Zrotation
					JOINT RightToeBase
					{
						OFFSET -4.230900 -16.068199 23.438400
						CHANNELS 3 Xrotation Yrotation Zrotation
						JOINT RightToe_End
						{
							OFFSET -4.510700 0.695400 19.974600
							CHANNELS 3 Xrotation Yrotation Zrotation
							End Site
							{
								OFFSET 0 0 0
							}
						}
					}
				}
			}
		}
	}
	JOINT Spine_virtual
	{
		OFFSET 0.000000 0.000000 0.000000
		CHANNELS 3 Xrotation Yrotation Zrotation
		JOINT Spine
		{
			OFFSET -0.002400 12.777504 0.315300
			CHANNELS 3 Xrotation Yrotation Zrotation
			JOINT Spine1
			{
				OFFSET -0.002067 5.816869 0.032633
				CHANNELS 3 Xrotation Yrotation Zrotation
				JOINT Spine1_split
				{
					OFFSET -0.002067 5.816869 0.032633
					CHANNELS 3 Xrotation Yrotation Zrotation
					JOINT Spine2
					{
						OFFSET -0.002067 5.816869 0.032633
						CHANNELS 3 Xrotation Yrotation Zrotation
						JOINT Neck_virtual
						{
							OFFSET 0.000000 0.000000 0.000000
							CHANNELS 3 Xrotation Yrotation Zrotation
							JOINT Neck
							{
								OFFSET -0.003700 21.199493 -0.826900
								CHANNELS 3 Xrotation Yrotation Zrotation
								JOINT Head
								{
									OFFSET 0.000000 20.442200 4.834800
									CHANNELS 3 Xrotation Yrotation Zrotation
									JOINT HeadTop_End
									{
										OFFSET 0.000000 34.668396 4.968400
										CHANNELS 3 Xrotation Yrotation Zrotation
										End Site
										{
											OFFSET 0 0 0
										}
									}
								}
							}
						}
						JOINT LeftShoulder_virtual
						{
							OFFSET 0.000000 0.000000 0.000000
							CHANNELS 3 Xrotation Yrotation Zrotation
							JOINT LeftShoulder
							{
								OFFSET 3.288150 8.794197 -1.372250
								CHANNELS 3 Xrotation Yrotation Zrotation
								JOINT LeftShoulder_split
								{
									OFFSET 3.288150 8.794197 -1.372250
									CHANNELS 3 Xrotation Yrotation Zrotation
									JOINT LeftArm
									{
										OFFSET 11.953299 -2.279007 -0.146200
										CHANNELS 3 Xrotation Yrotation Zrotation
										JOINT LeftForeArm
										{
											OFFSET 18.448900 0.000000 0.000000
											CHANNELS 3 Xrotation Yrotation Zrotation
											JOINT LeftHand
											{
												OFFSET 29.527798 0.000000 0.000000
												CHANNELS 3 Xrotation Yrotation Zrotation
												End Site
												{
													OFFSET 0 0 0
												}
											}
										}
									}
								}
							}
						}
						JOINT RightShoulder_virtual
						{
							OFFSET 0.000000 0.000000 0.000000
							CHANNELS 3 Xrotation Yrotation Zrotation
							JOINT RightShoulder
							{
								OFFSET -3.249400 8.794197 -1.372250
								CHANNELS 3 Xrotation Yrotation Zrotation
								JOINT RightShoulder_split
								{
									OFFSET -3.249400 8.794197 -1.372250
									CHANNELS 3 Xrotation Yrotation Zrotation
									JOINT RightArm
									{
										OFFSET -11.953299 -2.279007 -0.146200
										CHANNELS 3 Xrotation Yrotation Zrotation
										JOINT RightForeArm
										{
											OFFSET -18.448900 0.000000 0.000000
											CHANNELS 3 Xrotation Yrotation Zrotation
											JOINT RightHand
											{
												OFFSET -29.527802 0.000000 0.000000
												CHANNELS 3 Xrotation Yrotation Zrotation
												End Site
												{
													OFFSET 0 0 0
												}
											}
										}
									}
								}
							}
						}
					}
				}
			}
		}
	}
}
MOTION
Frames: 11
Frame Time: 0.03333333
9.869799 68.244682 51.524937 0.000000 0.000000 0.000000 -10.042626 -29.746649 -6.001920 -64.135797 -14.024147 22.202391 68.186359 -7.030381 7.748283 12.564727 -0.204995 -30.262458 -7.936162 -5.808788 6.980759 0.000000 0.000000 0.000000 -10.833231 -28.216792 -6.297638 -37.511884 -10.917697 -33.870249 77.500640 23.240149 -17.496663 4.926906 -25.164008 35.954256 -9.549793 20.883592 -26.189464 0.000000 0.000000 0.000000 -7.420163 -26.408508 -6.543580 16.715840 6.599182 -8.272114 2.364086 -1.034507 1.278818 0.287143 -1.369907 0.196550 0.000000 0.000000 0.000000 9.670024 1.088430 2.564759 10.816148 22.849027 8.454589 -5.371175 11.905687 -32.730208 0.000000 0.000000 0.000000 5.359664 -1.129128 1.449742 1.288058 -6.228486 -3.076997 6.966842 -6.257433 2.807620 -64.027320 15.453728 -35.641911 174.712496 -66.263886 173.243363 0.000000 0.000000 0.000000 4.974844 -2.486502 1.001463 0.638258 7.180380 -8.459567 -11.550300 -0.349199 -4.848732 -40.313788 20.433783 86.256389 -142.733182 70.363946 141.950742 0.000000 0.000000 0.000000 
9.145841 69.690117 48.367771 0.000000 0.000000 0.000000 -9.377511 -29.864193 -4.893017 -62.969754 -12.625623 21.300865 62.137448 -5.856702 9.025466 15.774141 -0.393872 -32.021382 -7.930658 -6.544483 7.446804 0.000000 0.000000 0.000000 -11.691694 -28.726655 -5.485035 -32.034420 -12.777231 -31.477343 76.341311 22.923850 -18.479449 -7.247576 -27.353024 38.422410 -2.017195 20.654217 -33.470212 0.000000 0.000000 0.000000 -8.568409 -27.797973 -6.013010 14.509390 7.365472 -7.335248 2.460404 -1.115392 0.711839 0.107789 -1.091409 0.179756 0.000000 0.000000 0.000000 9.393364 0.924447 2.010753 11.482990 21.831028 7.996556 -6.006148 8.241382 -33.196116 0.000000 0.000000 0.000000 5.563919 -1.287148 0.872804 0.940283 -3.263861 -3.090835 7.799157 -7.493741 4.431963 -63.079618 17.055664 -37.887913 172.606516 -67.537225 170.407237 0.000000 0.000000 0.000000 5.122557 -2.679875 0.554289 0.404546 7.782949 -8.265500 -11.833464 0.091759 -5.715041 -40.872275 20.967929 87.008776 -138.676637 70.864797 137.919811 0.000000 0.000000 0.000000 
8.455306 71.603607 45.169788 0.000000 0.000000 0.000000 -7.817824 -29.025640 -3.218509 -63.418033 -10.266866 21.262220 56.289559 -5.311237 9.742655 19.349637 -1.397637 -33.505602 -4.642355 -6.779789 7.413877 0.000000 0.000000 0.000000 -10.675937 -28.145734 -3.879597 -27.595791 -14.077551 -28.990666 73.975122 22.035000 -18.442264 -17.828319 -30.363401 37.443008 7.618408 18.513815 -37.428457 0.000000 0.000000 0.000000 -8.893907 -28.075950 -5.082751 12.637116 7.686269 -6.654025 2.436055 -1.236692 0.158375 -0.009236 -0.640909 0.119171 0.000000 0.000000 0.000000 8.832350 0.779155 1.363956 12.149104 20.578511 7.820610 -6.496359 4.170757 -33.581247 0.000000 0.000000 0.000000 5.640482 -1.446695 0.399892 0.661540 -0.744210 -2.671096 8.771284 -8.576529 5.343066 -62.898440 17.384250 -40.247979 172.047288 -68.884220 169.396109 0.000000 0.000000 0.000000 5.057566 -2.794332 0.168025 0.020282 8.096093 -8.619548 -10.862412 1.485847 -5.399335 -41.248776 20.578701 87.704403 -137.759752 70.603351 136.478081 0.000000 0.000000 0.000000 
7.784022 73.630318 42.128483 0.000000 0.000000 0.000000 -5.850727 -28.221042 -1.476117 -63.929990 -6.649588 21.963131 51.716857 -5.273105 9.724714 21.532714 -2.621368 -33.577814 -1.940616 -7.111491 8.481218 0.000000 0.000000 0.000000 -7.880223 -27.116858 -1.927782 -24.178082 -15.308406 -26.293044 70.475934 20.526517 -17.279115 -25.731221 -32.827894 33.496238 11.587763 17.451055 -38.421747 0.000000 0.000000 0.000000 -8.383291 -27.527607 -3.875138 11.345649 7.544773 -6.397956 2.318508 -1.382167 -0.275976 0.002221 -0.211048 0.086354 0.000000 0.000000 0.000000 8.098628 0.703169 0.798039 12.596202 19.212342 7.938219 -7.394551 0.417942 -34.119045 0.000000 0.000000 0.000000 5.530580 -1.577925 0.110909 0.422108 1.008853 -1.916228 9.660151 -8.890851 5.292754 -63.753915 16.974335 -42.220193 172.544089 -70.396588 169.731676 0.000000 0.000000 0.000000 4.717596 -2.789299 -0.046236 -0.496877 8.160071 -9.447324 -8.728018 2.734352 -3.938585 -42.075772 19.427472 88.202884 -140.093177 69.865793 137.860702 0.000000 0.000000 0.000000 
7.139122 75.636658 38.817268 0.000000 0.000000 0.000000 -3.786209 -28.221809 0.108356 -63.140366 -2.002934 22.934636 48.693508 -5.424053 8.815253 19.137145 -2.872007 -31.124571 -2.820257 -7.822871 11.113163 0.000000 0.000000 0.000000 -4.982359 -26.707973 -0.380683 -23.267161 -16.615700 -23.988676 66.755195 18.701297 -15.376998 -28.225818 -33.825238 30.431150 10.097397 17.758101 -37.646046 0.000000 0.000000 0.000000 -7.087178 -26.473327 -2.607680 10.732492 7.033400 -6.562191 2.072221 -1.519392 -0.495038 0.067383 0.081686 0.062862 0.000000 0.000000 0.000000 7.287136 0.701120 0.501801 12.574212 17.959410 8.214308 -8.781108 -2.135245 -35.015235 0.000000 0.000000 0.000000 5.186821 -1.637100 0.081502 0.196846 1.914715 -0.927006 10.119635 -8.669333 4.018201 -65.600122 16.298447 -43.709188 172.998023 -72.087019 170.236195 0.000000 0.000000 0.000000 4.199047 -2.718363 -0.024128 -1.109529 8.099884 -10.383959 -6.342990 3.347264 -2.270068 -43.409687 17.857519 88.553252 -144.108044 69.154067 140.696720 0.000000 0.000000 0.000000 
6.709499 77.577553 35.112297 0.000000 0.000000 0.000000 -1.877341 -29.088618 1.352241 -61.663399 2.977075 23.953386 48.665600 -5.955313 7.369974 12.554990 -2.971972 -27.042838 -5.635893 -8.618683 13.525209 0.000000 0.000000 0.000000 -2.573407 -27.178233 0.560140 -25.625005 -17.900643 -22.636507 63.867801 17.034002 -13.271397 -25.163081 -33.023674 30.232845 7.010027 18.120436 -35.888631 0.000000 0.000000 0.000000 -4.866169 -25.441659 -1.515104 10.611467 6.292521 -6.928732 1.679202 -1.605299 -0.448409 0.167978 0.209201 0.069541 0.000000 0.000000 0.000000 6.460348 0.764110 0.546479 12.132275 17.093477 8.447487 -10.627668 -3.247758 -36.236800 0.000000 0.000000 0.000000 4.647036 -1.604282 0.300498 -0.008959 2.140498 0.084722 9.759872 -8.003794 2.064196 -68.007968 15.766384 -44.850837 171.998411 -73.923055 169.395412 0.000000 0.000000 0.000000 3.573760 -2.589882 0.238736 -1.713361 8.021614 -11.192073 -4.212783 3.123650 -1.144073 -45.013727 16.518642 88.900274 -148.124714 68.940965 143.482194 0.000000 0.000000 0.000000 
6.381192 79.466103 31.024155 0.000000 0.000000 0.000000 0.207361 -30.110793 2.071829 -60.006203 7.148687 24.662285 52.161492 -6.791335 5.726059 5.318815 -3.918950 -22.714173 -6.310456 -8.761642 13.442325 0.000000 0.000000 0.000000 -0.575903 -28.348406 1.044734 -30.011045 -19.086342 -22.252454 61.961256 16.083209 -11.372653 -20.571345 -30.136700 31.079639 5.303918 17.721216 -34.184807 0.000000 0.000000 0.000000 -1.707230 -24.797811 -0.683706 10.650534 5.467632 -7.211679 1.119236 -1.620437 -0.176537 0.250223 0.176290 0.083082 0.000000 0.000000 0.000000 5.653210 0.861876 0.902328 11.576266 16.787113 8.326913 -12.427917 -3.019534 -37.601899 0.000000 0.000000 0.000000 3.962112 -1.504384 0.692058 -0.186966 2.108063 0.923822 8.819514 -7.430633 0.259818 -70.380776 15.569847 -45.768688 168.568194 -75.612639 166.113848 0.000000 0.000000 0.000000 2.856345 -2.456951 0.675661 -2.130263 7.976157 -11.687207 -2.295188 1.948059 -0.637374 -46.781543 15.662216 89.383141 -151.588098 69.228557 145.836478 0.000000 0.000000 0.000000 
6.070451 81.400993 26.553226 0.000000 0.000000 0.000000 2.477953 -31.071671 2.271420 -57.897786 9.192653 24.488209 57.754119 -8.463182 4.699916 0.592571 -5.824162 -20.268856 -5.960867 -8.187809 11.052818 0.000000 0.000000 0.000000 1.459888 -29.576693 1.316723 -34.412419 -19.950796 -22.245322 60.194150 16.057865 -9.806990 -17.811339 -25.675303 30.744853 5.871270 16.597641 -33.105182 0.000000 0.000000 0.000000 1.654180 -24.931915 -0.257066 10.551048 4.707337 -7.184958 0.404233 -1.592984 0.197406 0.284288 0.086398 0.096060 0.000000 0.000000 0.000000 4.858166 0.939288 1.424809 11.088250 17.119258 7.772270 -13.346187 -1.502968 -38.808349 0.000000 0.000000 0.000000 3.169851 -1.375224 1.147715 -0.346579 2.225630 1.570879 7.592936 -7.471710 -1.051469 -72.465596 15.424194 -46.629602 162.400383 -76.894420 159.971391 0.000000 0.000000 0.000000 2.121257 -2.385651 1.126033 -2.289676 7.989199 -11.879549 -1.128978 0.331167 -0.519136 -48.528890 15.538921 90.068694 -154.542606 69.648914 147.946501 0.000000 0.000000 0.000000 
5.774245 83.323036 22.184902 0.000000 0.000000 0.000000 4.505259 -31.936206 1.943221 -53.719158 9.345145 22.907143 61.571724 -9.984822 4.358603 -2.861831 -7.033460 -19.017069 -8.784771 -7.554507 8.298138 0.000000 0.000000 0.000000 3.176345 -31.201182 1.240684 -37.705988 -20.612698 -22.186924 58.096360 16.252264 -8.469819 -16.417970 -20.834664 28.787550 6.974579 15.611574 -32.349750 0.000000 0.000000 0.000000 4.634558 -25.811970 -0.189665 10.146273 4.112061 -6.785323 -0.417501 -1.578135 0.523581 0.287518 -0.015836 0.125863 0.000000 0.000000 0.000000 4.116252 0.951381 1.937636 10.843922 17.979995 6.807556 -12.954692 0.674071 -39.567064 0.000000 0.000000 0.000000 2.388006 -1.278612 1.531680 -0.477743 2.819037 2.050230 6.746816 -8.075530 -1.259260 -73.996917 15.183726 -47.338760 154.461491 -77.794188 151.944375 0.000000 0.000000 0.000000 1.362005 -2.423950 1.465847 -2.164253 8.070160 -11.898174 -0.553681 -1.238527 -0.497308 -50.154414 16.207411 90.815718 -156.561186 69.983457 149.476176 0.000000 0.000000 0.000000 
5.386228 85.165543 18.142582 0.000000 0.000000 0.000000 5.913061 -32.679805 1.288493 -46.579274 9.165500 20.445174 61.096848 -9.463368 3.459798 -8.669739 -5.779615 -15.971801 -12.387647 -6.532983 4.761270 0.000000 0.000000 0.000000 3.874445 -33.755977 0.724148 -39.932421 -21.286361 -22.136119 55.727052 15.821804 -7.155845 -13.853552 -17.072375 26.691831 6.298570 15.292517 -31.085403 0.000000 0.000000 0.000000 6.717706 -27.130589 -0.291894 9.520400 3.741763 -6.139583 -1.238752 -1.643649 0.692979 0.237771 -0.070381 0.114650 0.000000 0.000000 0.000000 3.425436 0.864427 2.309716 10.773931 19.188527 5.557725 -11.185481 3.325491 -39.634119 0.000000 0.000000 0.000000 1.692695 -1.281881 1.769803 -0.566033 3.945801 2.453838 6.447158 -9.151277 -0.636022 -75.078061 14.584025 -47.829370 145.933562 -78.579141 143.233001 0.000000 0.000000 0.000000 0.646949 -2.608238 1.614032 -1.835177 8.247494 -11.765467 -0.286646 -2.455932 -0.334918 -51.444452 17.332356 91.448139 -157.397611 70.326838 150.199248 0.000000 0.000000 0.000000 
4.947859 86.516113 14.483131 0.000000 0.000000 0.000000 6.321809 -33.655054 0.514859 -38.622234 8.839249 17.992052 58.051799 -7.560211 2.279806 -16.242031 -2.948683 -12.198582 -11.360776 -4.714918 -0.413611 0.000000 0.000000 0.000000 3.795928 -36.051685 0.061277 -40.924967 -21.600161 -22.140770 53.459252 15.242566 -6.194817 -10.220536 -15.229114 25.460128 3.525755 15.228042 -28.565492 0.000000 0.000000 0.000000 7.572042 -28.653914 -0.488236 8.956788 3.649145 -5.493207 -1.906252 -1.813672 0.673486 0.181365 -0.129705 0.122694 0.000000 0.000000 0.000000 2.799096 0.667934 2.489045 10.714519 20.524121 4.275468 -8.594052 6.308046 -38.959826 0.000000 0.000000 0.000000 1.191294 -1.397353 1.829430 -0.603141 5.405273 2.884411 6.477798 -10.117182 0.251862 -75.969257 13.533992 -48.069509 137.191494 -79.527301 134.299155 0.000000 0.000000 0.000000 0.046085 -2.915188 1.563537 -1.469046 8.518800 -11.493520 -0.728139 -3.056658 0.019132 -52.229685 18.591852 91.790837 -157.198429 70.734846 150.218522 0.000000 0.000000 0.000000 
